<?xml version="1.0" encoding="utf-8"?>
<!-- Generator: Adobe Illustrator 16.2.0, SVG Export Plug-In . SVG Version: 6.00 Build 0)  -->
<!DOCTYPE svg PUBLIC "-//W3C//DTD SVG 1.1//EN" "http://www.w3.org/Graphics/SVG/1.1/DTD/svg11.dtd">
<svg version="1.1" id="Layer_1" xmlns="http://www.w3.org/2000/svg" xmlns:xlink="http://www.w3.org/1999/xlink" x="0px" y="0px"
	 width="128px" height="129.25px" viewBox="0 0 128 129.25" enable-background="new 0 0 128 129.25" xml:space="preserve">
<path fill="#FFFFFF" d="M111.74,52.5c0,0,11.129-3.87,16-12c-6.371,0.88-13.67-0.67-16-4v-20c0-4.42-3.58-8-8-8H39.99
	c0,0,8-2.67,7.25-5c-0.961-2.98-9.67,0.75-16.83,3.75c1.91-2.08,3.41-4.17,3.16-6.75c-5.07,1.29-9.361,5.7-11.34,8.15
	c-0.031,0-0.051,0-0.08,0.01C22.74,7.5,24.209,4.54,23.82,3c-3.16,1.67-8.08,5.5-8.08,13.5v76c0,8-8,12-16,4c4,12,12,16,24,16h13.67
	l-1.631,11.43c-0.309,2.19,1.211,4.221,3.391,4.53c0.199,0.03,0.391,0.04,0.57,0.04c1.959,0,3.67-1.439,3.959-3.439L45.49,112.5
	h27.129l3.24,12.97c0.451,1.82,2.09,3.03,3.881,3.03c0.32,0,0.639-0.04,0.969-0.12c2.141-0.54,3.451-2.71,2.91-4.85l-2.76-11.03
	h22.881c4.42,0,8-3.58,8-8v-40c4.33,0,10.67-1.17,16-8C121.41,56.17,111.74,52.5,111.74,52.5 M63.74,40.5c0-4.42,3.58-8,8-8
	s8,3.58,8,8s-3.58,8-8,8S63.74,44.92,63.74,40.5z"/>
</svg>
